# xmcd CD database file
#
# Track frame offsets:
#	150
#	25901
#	48824
#	74512
#	97572
#
# Disc length: 1413 seconds
#
# Revision: 0
# Processed by: cddbd v1.5PL3 Copyright (c) Steve Scherf et al.
# Submitted via: CDex 1.50
#
DISCID=32058305
DTITLE=千葉紗子 - Winter Story
DYEAR=2003
DGENRE=Vocal
TTITLE0=Winter Story
TTITLE1=snow
TTITLE2=Winter Story (off vocal)
TTITLE3=snow (off vocal)
TTITLE4=another story (Bonus Track)
EXTD=YEAR: 2003/11/27
EXTT0=
EXTT1=
EXTT2=
EXTT3=
EXTT4=
PLAYORDER=
